<svg width="35" height="40" viewBox="0 0 35 40" fill="none" xmlns="http://www.w3.org/2000/svg">
<mask id="path-1-outside-1_5002_571" maskUnits="userSpaceOnUse" x="0" y="0" width="35" height="40" fill="black">
<rect fill="white" width="35" height="40"/>
<path d="M33.5341 5.13413C33.0984 4.63364 32.462 4.61927 31.7367 4.60289C31.6545 4.60104 31.5712 4.59915 31.4869 4.59654C31.4227 4.59432 31.3518 4.59517 31.2778 4.59607C30.9837 4.59961 30.6396 4.60376 30.4663 4.41836C30.2653 4.20342 30.2844 3.78803 30.3001 3.44512C30.3051 3.33676 30.3097 3.23557 30.307 3.1503C30.2787 2.35371 30.2198 1.50752 29.8099 1.22464C29.5008 1.0124 28.576 1.04181 27.7231 1.06892C27.4467 1.07771 27.1777 1.08627 26.9398 1.08627H8.78638C8.42087 1.08627 8.03774 1.06394 7.66129 1.042C6.92775 0.999261 6.2196 0.957996 5.71673 1.08627C4.98691 1.27333 4.9375 2.25631 4.89097 3.18194L4.88846 3.23174C4.84939 3.99588 4.59694 4.58551 3.76025 4.52612C2.78712 4.45816 1.81881 4.43673 1.37883 5.09739C0.859197 5.87907 0.966364 6.69731 1.15832 8.16291C1.18574 8.37226 1.21489 8.59482 1.24419 8.83237H33.8148C33.8334 8.65874 33.8532 8.48734 33.8728 8.31871C34.0253 7.00012 34.1582 5.85126 33.5341 5.13413Z"/>
<path fill-rule="evenodd" clip-rule="evenodd" d="M3.78069 10.286C4.28938 15.4504 4.79251 20.6207 5.29566 25.7912L5.29597 25.7943C5.56916 28.6017 5.84235 31.4091 6.11644 34.2156H7.15568C7.2265 34.6549 7.30753 35.1972 7.39296 35.769C7.56638 36.9297 7.75797 38.212 7.91904 39H8.03398C9.09255 38.7095 16.4105 36.3631 16.4138 27.0216C16.4125 26.9949 16.4136 26.9683 16.4173 26.9418H14.6094C14.5218 26.9412 14.437 26.9193 14.3679 26.8795C14.2988 26.8396 14.2493 26.784 14.227 26.7213C14.0508 26.3948 13.9087 26.0588 13.802 25.7161C12.7384 26.1667 11.8938 26.8548 11.3886 27.6823C10.9089 26.8348 10.8462 25.8893 11.2112 25.011C11.5762 24.1327 12.3459 23.3774 13.3856 22.8772C13.399 20.1513 14.7596 17.5237 17.2098 15.4916L17.248 15.4664C17.3193 15.4202 17.4104 15.3945 17.505 15.3939C17.5597 15.3943 17.6137 15.403 17.6636 15.4197C17.7141 15.4365 17.7593 15.461 17.7962 15.4916C20.275 17.5264 21.6284 20.1794 21.5864 22.9213C22.6455 23.4076 23.4308 24.1623 23.7965 25.0454C24.1622 25.9285 24.0835 26.88 23.5749 27.7232C23.0724 26.8945 22.2271 26.2058 21.1615 25.7571C21.0964 26.0892 20.9765 26.414 20.8045 26.7244C20.745 26.8568 20.6261 26.9418 20.5071 26.9418H18.579C18.5821 26.9577 18.5842 26.9736 18.5855 26.9896L18.5862 26.9932V27.001C18.5869 27.0147 18.5869 27.0285 18.5862 27.0423C18.6126 36.652 26.3932 38.8332 27.0491 39H27.2734C27.3307 38.2431 27.5171 37.1987 27.6989 36.1805C27.8241 35.4788 27.9471 34.7896 28.0241 34.2156H29.0754C29.4119 30.6805 29.758 27.1553 30.104 23.6301L30.1042 23.6282L30.1043 23.6272C30.547 19.118 30.9897 14.6087 31.4124 10.0784H3.84801C3.76867 10.09 3.77408 10.1874 3.78069 10.286ZM17.505 15.3939L17.503 15.3939H17.5072L17.505 15.3939Z"/>
</mask>
<path d="M33.5341 5.13413C33.0984 4.63364 32.462 4.61927 31.7367 4.60289C31.6545 4.60104 31.5712 4.59915 31.4869 4.59654C31.4227 4.59432 31.3518 4.59517 31.2778 4.59607C30.9837 4.59961 30.6396 4.60376 30.4663 4.41836C30.2653 4.20342 30.2844 3.78803 30.3001 3.44512C30.3051 3.33676 30.3097 3.23557 30.307 3.1503C30.2787 2.35371 30.2198 1.50752 29.8099 1.22464C29.5008 1.0124 28.576 1.04181 27.7231 1.06892C27.4467 1.07771 27.1777 1.08627 26.9398 1.08627H8.78638C8.42087 1.08627 8.03774 1.06394 7.66129 1.042C6.92775 0.999261 6.2196 0.957996 5.71673 1.08627C4.98691 1.27333 4.9375 2.25631 4.89097 3.18194L4.88846 3.23174C4.84939 3.99588 4.59694 4.58551 3.76025 4.52612C2.78712 4.45816 1.81881 4.43673 1.37883 5.09739C0.859197 5.87907 0.966364 6.69731 1.15832 8.16291C1.18574 8.37226 1.21489 8.59482 1.24419 8.83237H33.8148C33.8334 8.65874 33.8532 8.48734 33.8728 8.31871C34.0253 7.00012 34.1582 5.85126 33.5341 5.13413Z" fill="#8047F8"/>
<path fill-rule="evenodd" clip-rule="evenodd" d="M3.78069 10.286C4.28938 15.4504 4.79251 20.6207 5.29566 25.7912L5.29597 25.7943C5.56916 28.6017 5.84235 31.4091 6.11644 34.2156H7.15568C7.2265 34.6549 7.30753 35.1972 7.39296 35.769C7.56638 36.9297 7.75797 38.212 7.91904 39H8.03398C9.09255 38.7095 16.4105 36.3631 16.4138 27.0216C16.4125 26.9949 16.4136 26.9683 16.4173 26.9418H14.6094C14.5218 26.9412 14.437 26.9193 14.3679 26.8795C14.2988 26.8396 14.2493 26.784 14.227 26.7213C14.0508 26.3948 13.9087 26.0588 13.802 25.7161C12.7384 26.1667 11.8938 26.8548 11.3886 27.6823C10.9089 26.8348 10.8462 25.8893 11.2112 25.011C11.5762 24.1327 12.3459 23.3774 13.3856 22.8772C13.399 20.1513 14.7596 17.5237 17.2098 15.4916L17.248 15.4664C17.3193 15.4202 17.4104 15.3945 17.505 15.3939C17.5597 15.3943 17.6137 15.403 17.6636 15.4197C17.7141 15.4365 17.7593 15.461 17.7962 15.4916C20.275 17.5264 21.6284 20.1794 21.5864 22.9213C22.6455 23.4076 23.4308 24.1623 23.7965 25.0454C24.1622 25.9285 24.0835 26.88 23.5749 27.7232C23.0724 26.8945 22.2271 26.2058 21.1615 25.7571C21.0964 26.0892 20.9765 26.414 20.8045 26.7244C20.745 26.8568 20.6261 26.9418 20.5071 26.9418H18.579C18.5821 26.9577 18.5842 26.9736 18.5855 26.9896L18.5862 26.9932V27.001C18.5869 27.0147 18.5869 27.0285 18.5862 27.0423C18.6126 36.652 26.3932 38.8332 27.0491 39H27.2734C27.3307 38.2431 27.5171 37.1987 27.6989 36.1805C27.8241 35.4788 27.9471 34.7896 28.0241 34.2156H29.0754C29.4119 30.6805 29.758 27.1553 30.104 23.6301L30.1042 23.6282L30.1043 23.6272C30.547 19.118 30.9897 14.6087 31.4124 10.0784H3.84801C3.76867 10.09 3.77408 10.1874 3.78069 10.286ZM17.505 15.3939L17.503 15.3939H17.5072L17.505 15.3939Z" fill="#8047F8"/>
<path d="M31.7367 4.60289L31.748 4.10302L31.748 4.10302L31.7367 4.60289ZM33.5341 5.13413L33.9113 4.8059L33.9112 4.80583L33.5341 5.13413ZM31.4869 4.59654L31.4696 5.09624L31.4714 5.0963L31.4869 4.59654ZM31.2778 4.59607L31.2838 5.09603L31.2838 5.09603L31.2778 4.59607ZM30.4663 4.41836L30.101 4.75983L30.1011 4.75985L30.4663 4.41836ZM30.3001 3.44512L29.8006 3.42219L29.8006 3.4222L30.3001 3.44512ZM30.307 3.1503L30.8067 3.13423L30.8067 3.13258L30.307 3.1503ZM29.8099 1.22464L30.0939 0.813117L30.0929 0.812449L29.8099 1.22464ZM27.7231 1.06892L27.7073 0.569177L27.7073 0.569177L27.7231 1.06892ZM7.66129 1.042L7.69037 0.54285L7.69037 0.54285L7.66129 1.042ZM5.71673 1.08627L5.59315 0.601777L5.59258 0.601922L5.71673 1.08627ZM4.89097 3.18194L5.39033 3.20708L5.39033 3.20704L4.89097 3.18194ZM4.88846 3.23174L5.38781 3.25727L5.38782 3.25688L4.88846 3.23174ZM3.76025 4.52612L3.79566 4.02738L3.79509 4.02734L3.76025 4.52612ZM1.37883 5.09739L0.962666 4.82024L0.962434 4.82059L1.37883 5.09739ZM1.15832 8.16291L0.662552 8.22784L0.662552 8.22784L1.15832 8.16291ZM1.24419 8.83237L0.747947 8.89358L0.802068 9.33237H1.24419V8.83237ZM33.8148 8.83237V9.33237H34.2641L34.312 8.88564L33.8148 8.83237ZM33.8728 8.31871L34.3694 8.37616L34.3694 8.37616L33.8728 8.31871ZM5.29566 25.7912L4.79801 25.8396L4.79801 25.8396L5.29566 25.7912ZM3.78069 10.286L3.28181 10.3194L3.28233 10.3272L3.2831 10.335L3.78069 10.286ZM5.29597 25.7943L5.79362 25.7459L5.79362 25.7459L5.29597 25.7943ZM6.11644 34.2156L5.6188 34.2642L5.66289 34.7156H6.11644V34.2156ZM7.15568 34.2156L7.64931 34.136L7.58154 33.7156H7.15568V34.2156ZM7.39296 35.769L6.89845 35.8429L6.89845 35.8429L7.39296 35.769ZM7.91904 39L7.42917 39.1001L7.5109 39.5H7.91904V39ZM8.03398 39V39.5H8.10136L8.16633 39.4822L8.03398 39ZM16.4138 27.0216L16.9138 27.0217L16.9138 27.009L16.9132 26.9963L16.4138 27.0216ZM16.4173 26.9418L16.9126 27.0107L16.9917 26.4418H16.4173V26.9418ZM14.6094 26.9418L14.6059 27.4418H14.6094V26.9418ZM14.3679 26.8795L14.6177 26.4463L14.6177 26.4463L14.3679 26.8795ZM14.227 26.7213L14.698 26.5536L14.6851 26.5175L14.667 26.4838L14.227 26.7213ZM13.802 25.7161L14.2794 25.5675L14.1153 25.0404L13.607 25.2558L13.802 25.7161ZM11.3886 27.6823L10.9534 27.9286L11.3722 28.6685L11.8153 27.9429L11.3886 27.6823ZM11.2112 25.011L11.6729 25.2029L11.6729 25.2029L11.2112 25.011ZM13.3856 22.8772L13.6024 23.3278L13.8841 23.1923L13.8856 22.8797L13.3856 22.8772ZM17.2098 15.4916L16.9346 15.0741L16.9117 15.0892L16.8906 15.1067L17.2098 15.4916ZM17.248 15.4664L16.976 15.0469L16.9729 15.0489L17.248 15.4664ZM17.6636 15.4197L17.8216 14.9453L17.8216 14.9453L17.6636 15.4197ZM17.7962 15.4916L17.4771 15.8765L17.4789 15.8781L17.7962 15.4916ZM21.5864 22.9213L21.0864 22.9137L21.0814 23.2397L21.3777 23.3757L21.5864 22.9213ZM23.7965 25.0454L24.2585 24.8541L24.2585 24.8541L23.7965 25.0454ZM23.5749 27.7232L23.1474 27.9825L23.5761 28.6895L24.0031 27.9815L23.5749 27.7232ZM21.1615 25.7571L21.3555 25.2963L20.789 25.0578L20.6708 25.6609L21.1615 25.7571ZM20.8045 26.7244L20.3672 26.4821L20.357 26.5004L20.3485 26.5194L20.8045 26.7244ZM18.579 26.9418V26.4418H17.9737L18.088 27.0362L18.579 26.9418ZM18.5855 26.9896L18.087 27.0283L18.0893 27.0578L18.095 27.0869L18.5855 26.9896ZM18.5862 26.9932H19.0862V26.9441L19.0766 26.8959L18.5862 26.9932ZM18.5862 27.001H18.0862V27.0136L18.0868 27.0263L18.5862 27.001ZM18.5862 27.0423L18.0868 27.0186L18.0862 27.0311L18.0863 27.0437L18.5862 27.0423ZM27.0491 39L26.9258 39.4846L26.9865 39.5H27.0491V39ZM27.2734 39V39.5H27.737L27.772 39.0377L27.2734 39ZM27.6989 36.1805L28.1911 36.2684L28.1911 36.2684L27.6989 36.1805ZM28.0241 34.2156V33.7156H27.5867L27.5286 34.1491L28.0241 34.2156ZM29.0754 34.2156V34.7156H29.5301L29.5732 34.2629L29.0754 34.2156ZM30.104 23.6301L30.6017 23.679L30.6018 23.678L30.104 23.6301ZM30.1042 23.6282L29.6068 23.5771L29.6065 23.5803L30.1042 23.6282ZM30.1043 23.6272L30.6017 23.6783L30.6019 23.676L30.1043 23.6272ZM31.4124 10.0784L31.9102 10.1248L31.9612 9.57839H31.4124V10.0784ZM3.84801 10.0784V9.57839H3.81155L3.77547 9.58368L3.84801 10.0784ZM17.503 15.3939V14.8939L17.5001 15.8939L17.503 15.3939ZM17.5072 15.3939L17.5098 15.8939L17.5072 14.8939V15.3939ZM31.7254 5.10276C32.5067 5.12041 32.8915 5.15749 33.157 5.46243L33.9112 4.80583C33.3053 4.1098 32.4173 4.11813 31.748 4.10302L31.7254 5.10276ZM31.4714 5.0963C31.5581 5.09899 31.6435 5.10092 31.7254 5.10276L31.748 4.10302C31.6655 4.10116 31.5842 4.09932 31.5024 4.09678L31.4714 5.0963ZM31.2838 5.09603C31.3608 5.0951 31.4193 5.0945 31.4696 5.09624L31.5041 4.09683C31.4261 4.09414 31.3429 4.09525 31.2718 4.0961L31.2838 5.09603ZM30.1011 4.75985C30.3016 4.97431 30.5654 5.04442 30.7525 5.07252C30.9441 5.1013 31.1455 5.0977 31.2838 5.09603L31.2718 4.0961C31.116 4.09798 30.9983 4.09822 30.901 4.08361C30.7992 4.06832 30.8043 4.0478 30.8315 4.07687L30.1011 4.75985ZM29.8006 3.4222C29.7931 3.58579 29.7816 3.81435 29.8047 4.0324C29.827 4.24249 29.8889 4.53293 30.101 4.75983L30.8315 4.07689C30.8427 4.08885 30.8137 4.06413 30.7992 3.92706C30.7855 3.79795 30.7914 3.64736 30.7996 3.46804L29.8006 3.4222ZM29.8072 3.16638C29.8092 3.22805 29.8059 3.3078 29.8006 3.42219L30.7996 3.46805C30.8043 3.36572 30.8102 3.24309 30.8067 3.13423L29.8072 3.16638ZM29.5259 1.63617C29.5589 1.65895 29.6457 1.76593 29.7113 2.09316C29.7718 2.39481 29.7931 2.76776 29.8073 3.16802L30.8067 3.13258C30.7926 2.73626 30.7703 2.28781 30.6918 1.8965C30.6185 1.53077 30.4708 1.07321 30.0939 0.813118L29.5259 1.63617ZM27.739 1.56867C28.1706 1.55495 28.5952 1.54173 28.9495 1.55659C29.1262 1.564 29.2712 1.57796 29.382 1.59855C29.5037 1.62117 29.5367 1.64356 29.5269 1.63684L30.0929 0.812449C29.9286 0.699609 29.73 0.646089 29.5647 0.615378C29.3885 0.582634 29.1911 0.565844 28.9914 0.557465C28.5928 0.540748 28.1285 0.555782 27.7073 0.569177L27.739 1.56867ZM26.9398 1.58627C27.1873 1.58627 27.4647 1.5774 27.739 1.56867L27.7073 0.569177C27.4287 0.578034 27.1682 0.586265 26.9398 0.586265V1.58627ZM8.78638 1.58627H26.9398V0.586265H8.78638V1.58627ZM7.6322 1.54116C8.00576 1.56292 8.40374 1.58627 8.78638 1.58627V0.586265C8.43801 0.586265 8.06971 0.564955 7.69037 0.54285L7.6322 1.54116ZM5.84031 1.57075C6.25042 1.46614 6.86694 1.49657 7.6322 1.54116L7.69037 0.54285C6.98856 0.501956 6.18878 0.449849 5.59315 0.601777L5.84031 1.57075ZM5.39033 3.20704C5.41444 2.72743 5.43792 2.31272 5.52856 1.99386C5.61615 1.68573 5.72584 1.60009 5.84087 1.57061L5.59258 0.601922C4.9778 0.759502 4.69787 1.25888 4.56667 1.72042C4.43852 2.17123 4.41402 2.71082 4.3916 3.15683L5.39033 3.20704ZM5.38782 3.25688L5.39033 3.20708L4.3916 3.15679L4.38909 3.20659L5.38782 3.25688ZM3.72485 5.02487C4.28265 5.06446 4.73498 4.88146 5.02676 4.4833C5.28739 4.12765 5.3668 3.66813 5.38781 3.25727L4.38911 3.20621C4.37105 3.55949 4.30469 3.77686 4.22016 3.89221C4.16678 3.96505 4.07454 4.04717 3.79566 4.02738L3.72485 5.02487ZM1.79498 5.37454C1.90833 5.20435 2.10481 5.08868 2.4506 5.03192C2.80437 4.97385 3.23519 4.99067 3.72542 5.02491L3.79509 4.02734C3.31219 3.99361 2.77229 3.96573 2.28862 4.04512C1.79697 4.12583 1.28931 4.32977 0.962666 4.82024L1.79498 5.37454ZM1.65408 8.09798C1.45466 6.57535 1.39961 5.9693 1.79522 5.37419L0.962434 4.82059C0.31878 5.78884 0.478067 6.81927 0.662552 8.22784L1.65408 8.09798ZM1.74043 8.77117C1.71086 8.53148 1.68148 8.30714 1.65408 8.09798L0.662552 8.22784C0.689997 8.43738 0.71891 8.65816 0.747947 8.89358L1.74043 8.77117ZM33.8148 8.33237H1.24419V9.33237H33.8148V8.33237ZM33.3761 8.26125C33.3566 8.42956 33.3365 8.60304 33.3177 8.7791L34.312 8.88564C34.3303 8.71444 34.3499 8.54511 34.3694 8.37616L33.3761 8.26125ZM33.1569 5.46235C33.3646 5.70101 33.4721 6.03784 33.4952 6.52458C33.5186 7.01732 33.4537 7.59039 33.3761 8.26125L34.3694 8.37616C34.4444 7.72844 34.5221 7.06778 34.4941 6.47716C34.4658 5.88054 34.3277 5.28437 33.9113 4.8059L33.1569 5.46235ZM5.79331 25.7427C5.29017 20.5724 4.787 15.4017 4.27828 10.2369L3.2831 10.335C3.79175 15.4991 4.29486 20.6691 4.79801 25.8396L5.79331 25.7427ZM5.79362 25.7459L5.79331 25.7427L4.79801 25.8396L4.79832 25.8428L5.79362 25.7459ZM6.61407 34.167C6.33999 31.3606 6.06681 28.5533 5.79362 25.7459L4.79832 25.8427C5.07151 28.6501 5.34471 31.4576 5.6188 34.2642L6.61407 34.167ZM7.15568 33.7156H6.11644V34.7156H7.15568V33.7156ZM7.88747 35.6951C7.80218 35.1243 7.72068 34.5787 7.64931 34.136L6.66206 34.2951C6.73232 34.731 6.81288 35.2701 6.89845 35.8429L7.88747 35.6951ZM8.40891 38.8999C8.25118 38.1282 8.06183 36.8621 7.88747 35.6951L6.89845 35.8429C7.07093 36.9973 7.26476 38.2958 7.42917 39.1001L8.40891 38.8999ZM8.03398 38.5H7.91904V39.5H8.03398V38.5ZM8.16633 39.4822C8.73496 39.3261 10.9132 38.6389 12.9567 36.7742C15.0156 34.8954 16.9121 31.8423 16.9138 27.0217L15.9138 27.0214C15.9122 31.5423 14.1481 34.3332 12.2826 36.0356C10.4016 37.752 8.39157 38.3834 7.90164 38.5178L8.16633 39.4822ZM16.9132 26.9963C16.9134 27.0013 16.9132 27.0062 16.9126 27.0107L15.9221 26.8729C15.9141 26.9303 15.9115 26.9885 15.9144 27.0468L16.9132 26.9963ZM14.6094 27.4418H16.4173V26.4418H14.6094V27.4418ZM14.1181 27.3126C14.2693 27.3998 14.4405 27.4407 14.6059 27.4418L14.6129 26.4418C14.6112 26.4418 14.6098 26.4417 14.6086 26.4416C14.6081 26.4415 14.6076 26.4414 14.6073 26.4414C14.6071 26.4413 14.607 26.4413 14.6069 26.4413C14.6068 26.4413 14.6068 26.4412 14.6068 26.4412C14.6068 26.4412 14.6068 26.4413 14.6069 26.4413C14.607 26.4413 14.6072 26.4414 14.6074 26.4414C14.6078 26.4416 14.6084 26.4418 14.6093 26.4421C14.611 26.4428 14.6139 26.4441 14.6177 26.4463L14.1181 27.3126ZM13.7559 26.889C13.8256 27.0848 13.9673 27.2256 14.1181 27.3126L14.6177 26.4463C14.6303 26.4536 14.6729 26.4833 14.698 26.5536L13.7559 26.889ZM13.3246 25.8648C13.4412 26.2392 13.596 26.6049 13.7869 26.9587L14.667 26.4838C14.5056 26.1847 14.3762 25.8784 14.2794 25.5675L13.3246 25.8648ZM11.8153 27.9429C12.2563 27.2206 13.0108 26.5944 13.9971 26.1765L13.607 25.2558C12.4661 25.7391 11.5313 26.489 10.9618 27.4217L11.8153 27.9429ZM10.7495 24.8191C10.3237 25.8437 10.4 26.9507 10.9534 27.9286L11.8237 27.436C11.4179 26.719 11.3687 25.935 11.6729 25.2029L10.7495 24.8191ZM13.1689 22.4267C12.0432 22.9682 11.1712 23.8044 10.7495 24.8191L11.6729 25.2029C11.9813 24.461 12.6486 23.7867 13.6024 23.3278L13.1689 22.4267ZM16.8906 15.1067C14.3478 17.2156 12.8999 19.9754 12.8856 22.8748L13.8856 22.8797C13.8982 20.3273 15.1714 17.8317 17.529 15.8765L16.8906 15.1067ZM16.9729 15.0489L16.9346 15.0741L17.485 15.9091L17.5232 15.8838L16.9729 15.0489ZM17.502 14.8939C17.3232 14.895 17.1363 14.9429 16.976 15.0469L17.5201 15.8859C17.51 15.8925 17.5039 15.8942 17.5035 15.8943C17.5029 15.8945 17.5046 15.8939 17.508 15.8939L17.502 14.8939ZM17.8216 14.9453C17.7198 14.9114 17.6133 14.8946 17.5081 14.8939L17.5018 15.8939C17.506 15.8939 17.5076 15.8947 17.5055 15.894L17.8216 14.9453ZM18.1153 15.1067C18.0257 15.0324 17.9244 14.9795 17.8216 14.9453L17.5055 15.894C17.5038 15.8934 17.4928 15.8896 17.4771 15.8765L18.1153 15.1067ZM22.0863 22.929C22.1311 20.0079 20.6877 17.2183 18.1134 15.1051L17.4789 15.8781C19.8624 17.8346 21.1257 20.3508 21.0864 22.9137L22.0863 22.929ZM24.2585 24.8541C23.8345 23.8302 22.9423 22.9937 21.795 22.4669L21.3777 23.3757C22.3488 23.8216 23.0272 24.4945 23.3346 25.2367L24.2585 24.8541ZM24.0031 27.9815C24.5907 27.0071 24.6871 25.889 24.2585 24.8541L23.3346 25.2367C23.6374 25.9679 23.5763 26.7529 23.1468 27.465L24.0031 27.9815ZM20.9674 26.2179C21.9551 26.6338 22.7094 27.2602 23.1474 27.9825L24.0025 27.464C23.4354 26.5288 22.499 25.7778 21.3555 25.2963L20.9674 26.2179ZM21.2419 26.9667C21.4379 26.613 21.5765 26.239 21.6521 25.8533L20.6708 25.6609C20.6162 25.9394 20.5151 26.2151 20.3672 26.4821L21.2419 26.9667ZM20.5071 27.4418C20.864 27.4418 21.1387 27.2005 21.2606 26.9294L20.3485 26.5194C20.353 26.5094 20.3629 26.4938 20.3843 26.4782C20.4052 26.463 20.4466 26.4418 20.5071 26.4418V27.4418ZM18.579 27.4418H20.5071V26.4418H18.579V27.4418ZM18.088 27.0362C18.0876 27.0339 18.0872 27.0313 18.087 27.0283L19.0839 26.9508C19.0812 26.9159 19.0766 26.8814 19.07 26.8474L18.088 27.0362ZM18.095 27.0869L18.0957 27.0906L19.0766 26.8959L19.0759 26.8922L18.095 27.0869ZM18.0862 26.9932V27.001H19.0862V26.9932H18.0862ZM18.0868 27.0263C18.0867 27.0237 18.0867 27.0212 18.0868 27.0186L19.0857 27.066C19.0871 27.0358 19.0871 27.0057 19.0855 26.9757L18.0868 27.0263ZM18.0863 27.0437C18.0999 32.0045 20.1234 35.0854 22.2533 36.9394C24.3665 38.7788 26.56 39.3915 26.9258 39.4846L27.1723 38.5154C26.8823 38.4417 24.8576 37.8804 22.9099 36.1851C20.979 34.5043 19.099 31.6898 19.0862 27.0409L18.0863 27.0437ZM27.2734 38.5H27.0491V39.5H27.2734V38.5ZM27.2066 36.0926C27.0267 37.1009 26.8345 38.1743 26.7748 38.9623L27.772 39.0377C27.8269 38.312 28.0076 37.2965 28.1911 36.2684L27.2066 36.0926ZM27.5286 34.1491C27.4533 34.7101 27.3325 35.3877 27.2066 36.0926L28.1911 36.2684C28.3157 35.57 28.441 34.8691 28.5197 34.282L27.5286 34.1491ZM29.0754 33.7156H28.0241V34.7156H29.0754V33.7156ZM29.6064 23.5813C29.2604 27.1064 28.9142 30.6323 28.5777 34.1682L29.5732 34.2629C29.9095 30.7287 30.2556 27.2043 30.6017 23.679L29.6064 23.5813ZM29.6065 23.5803L29.6063 23.5822L30.6018 23.678L30.6019 23.6761L29.6065 23.5803ZM29.607 23.5761L29.6068 23.5771L30.6016 23.6793L30.6017 23.6783L29.607 23.5761ZM30.9145 10.0319C30.492 14.5609 30.0494 19.069 29.6067 23.5783L30.6019 23.676C31.0446 19.167 31.4874 14.6565 31.9102 10.1248L30.9145 10.0319ZM3.84801 10.5784H31.4124V9.57839H3.84801V10.5784ZM4.27957 10.2525C4.2778 10.2262 4.2773 10.2157 4.27724 10.2093C4.27718 10.2017 4.27818 10.2192 4.27212 10.2491C4.26631 10.2777 4.24732 10.3519 4.1827 10.4273C4.10855 10.5138 4.01049 10.5599 3.92055 10.5731L3.77547 9.58368C3.64586 9.60268 3.51872 9.66534 3.42348 9.77645C3.33777 9.87643 3.30566 9.98336 3.29211 10.0501C3.26826 10.1676 3.27985 10.2901 3.28181 10.3194L4.27957 10.2525ZM17.5001 15.8939L17.5021 15.8939L17.5079 14.8939L17.5059 14.8939L17.5001 15.8939ZM17.5072 14.8939H17.503V15.8939H17.5072V14.8939ZM17.5075 15.8939L17.5098 15.8939L17.5047 14.8939L17.5025 14.8939L17.5075 15.8939Z" fill="#4B2995" mask="url(#path-1-outside-1_5002_571)"/>
</svg>
