<svg width="94" height="40" viewBox="0 0 94 40" fill="none" xmlns="http://www.w3.org/2000/svg">
<path d="M40.3088 5.69824C40.3088 4.43319 40.7447 3.45277 41.6163 2.75699C42.5038 2.0454 43.835 1.6896 45.61 1.6896C46.7827 1.6896 47.7811 1.8003 48.6052 2.02168V5.295C47.7177 5.02618 46.8382 4.89177 45.9665 4.89177C45.1108 4.89177 44.5561 4.99455 44.3025 5.20013C44.0489 5.38988 43.9222 5.67452 43.9222 6.05404V14.0239C43.9222 14.7829 44.5165 15.1624 45.7051 15.1624C46.9095 15.1624 47.9 15.0438 48.6765 14.8066V18.0088C47.8208 18.246 46.7827 18.3646 45.5624 18.3646C43.7875 18.3646 42.4642 18.0167 41.5925 17.3209C40.7367 16.6251 40.3088 15.6447 40.3088 14.3797V5.69824Z" fill="#403937"/>
<path d="M55.6205 7.95162C55.6205 7.35072 55.2877 7.05026 54.6221 7.05026C53.9565 7.05026 53.6237 7.35072 53.6237 7.95162V14.5457C53.6237 15.1466 53.9565 15.4471 54.6221 15.4471C55.2877 15.4471 55.6205 15.1466 55.6205 14.5457V7.95162ZM50.1054 7.83302C50.1054 6.63122 50.4779 5.69824 51.2227 5.03409C51.9834 4.35412 53.1166 4.01414 54.6221 4.01414C56.1277 4.01414 57.2529 4.35412 57.9977 5.03409C58.7584 5.69824 59.1388 6.63122 59.1388 7.83302V14.6643C59.1388 15.8661 58.7584 16.807 57.9977 17.487C57.2529 18.1511 56.1277 18.4832 54.6221 18.4832C53.1166 18.4832 51.9834 18.1511 51.2227 17.487C50.4779 16.807 50.1054 15.8661 50.1054 14.6643V7.83302Z" fill="#403937"/>
<path d="M61.4493 4.0853C61.4493 1.41287 62.8597 0.0766602 65.6807 0.0766602C66.0452 0.0766602 66.481 0.116193 66.9881 0.195259V2.94675C66.7346 2.91512 66.4968 2.89931 66.275 2.89931C65.4667 2.89931 65.0626 3.27883 65.0626 4.03786V4.25134H66.9881V7.05026H65.0626V18.246H61.4493V7.05026H60.0943V4.25134H61.4493V4.0853Z" fill="#403937"/>
<path d="M68.4601 4.0853C68.4601 1.41287 69.8706 0.0766602 72.6915 0.0766602C73.056 0.0766602 73.4918 0.116193 73.999 0.195259V2.94675C73.7454 2.91512 73.5077 2.89931 73.2858 2.89931C72.4776 2.89931 72.0734 3.27883 72.0734 4.03786V4.25134H73.999V7.05026H72.0734V18.246H68.4601V7.05026H67.1051V4.25134H68.4601V4.0853Z" fill="#403937"/>
<path d="M74.8291 14.2611V7.83302C74.8291 6.63122 75.2016 5.69824 75.9464 5.03409C76.6913 4.35412 77.8165 4.01414 79.322 4.01414C82.2222 4.01414 83.6723 5.2871 83.6723 7.83302V12.6481H78.2761V13.9764C78.2761 14.4508 78.4028 14.7908 78.6564 14.9964C78.9258 15.1861 79.5043 15.281 80.3917 15.281C81.2951 15.281 82.2777 15.1229 83.3395 14.8066V17.9376C82.2301 18.2381 81.0415 18.3883 79.7737 18.3883C76.4773 18.3883 74.8291 17.0126 74.8291 14.2611ZM78.2761 9.92035H80.368V7.88046C80.368 7.27956 80.0193 6.97911 79.322 6.97911C78.6247 6.97911 78.2761 7.27956 78.2761 7.88046V9.92035Z" fill="#403937"/>
<path d="M85.09 14.2611V7.83302C85.09 6.63122 85.4625 5.69824 86.2073 5.03409C86.9522 4.35412 88.0774 4.01414 89.5829 4.01414C92.4831 4.01414 93.9332 5.2871 93.9332 7.83302V12.6481H88.537V13.9764C88.537 14.4508 88.6637 14.7908 88.9173 14.9964C89.1867 15.1861 89.7652 15.281 90.6527 15.281C91.556 15.281 92.5386 15.1229 93.6004 14.8066V17.9376C92.491 18.2381 91.3024 18.3883 90.0346 18.3883C86.7382 18.3883 85.09 17.0126 85.09 14.2611ZM88.537 9.92035H90.6289V7.88046C90.6289 7.27956 90.2802 6.97911 89.5829 6.97911C88.8856 6.97911 88.537 7.27956 88.537 7.88046V9.92035Z" fill="#403937"/>
<path d="M46.0305 26.9797C46.0305 25.812 45.4129 25.2281 44.1776 25.2281H42.2075V35.874H44.1776C45.4129 35.874 46.0305 35.2772 46.0305 34.0835V26.9797ZM40.8227 24.0214H44.2556C45.2959 24.0214 46.0826 24.2874 46.6157 24.8194C47.1488 25.3514 47.4154 26.065 47.4154 26.9603V34.1224C47.4154 35.0436 47.1553 35.7702 46.6352 36.3022C46.1151 36.8342 45.3349 37.1001 44.2946 37.1001H40.8227V24.0214Z" fill="#403937"/>
<path d="M49.6945 34.2781V28.8676C49.6945 27.9463 49.9545 27.2133 50.4747 26.6683C51.0078 26.1104 51.8075 25.8314 52.8738 25.8314C53.9401 25.8314 54.7268 26.1104 55.2339 26.6683C55.7541 27.2133 56.0141 27.9463 56.0141 28.8676V32.254H51.0598V34.2197C51.0598 34.8036 51.2419 35.2382 51.606 35.5237C51.9701 35.8091 52.5357 35.9519 53.3029 35.9519C54.0701 35.9519 54.8633 35.8351 55.6825 35.6015V36.8861C55.0324 37.0936 54.2587 37.1975 53.3614 37.1975C50.9168 37.1975 49.6945 36.2243 49.6945 34.2781ZM51.0598 31.1057H54.6878V28.8676C54.6878 27.6479 54.0831 27.0381 52.8738 27.0381C51.6645 27.0381 51.0598 27.6479 51.0598 28.8676V31.1057Z" fill="#403937"/>
<path d="M58.3849 23.0872H59.7698V37.1001H58.3849V23.0872Z" fill="#403937"/>
<path d="M63.1439 24.7805C62.5847 24.7805 62.3051 24.482 62.3051 23.8852C62.3051 23.2884 62.5847 22.9899 63.1439 22.9899C63.716 22.9899 64.0021 23.2884 64.0021 23.8852C64.0021 24.482 63.716 24.7805 63.1439 24.7805ZM62.4612 26.1039H63.846V37.1001H62.4612V26.1039Z" fill="#403937"/>
<path d="M70.9846 26.0261H72.389L69.9313 37.1001H67.9808L65.5232 26.0261H66.9471L68.0198 31.1057L68.9756 36.127C69.3657 33.9732 70.0354 30.6062 70.9846 26.0261Z" fill="#403937"/>
<path d="M73.8663 34.2781V28.8676C73.8663 27.9463 74.1264 27.2133 74.6466 26.6683C75.1797 26.1104 75.9794 25.8314 77.0457 25.8314C78.112 25.8314 78.8987 26.1104 79.4058 26.6683C79.9259 27.2133 80.186 27.9463 80.186 28.8676V32.254H75.2317V34.2197C75.2317 34.8036 75.4138 35.2382 75.7778 35.5237C76.1419 35.8091 76.7076 35.9519 77.4748 35.9519C78.242 35.9519 79.0352 35.8351 79.8544 35.6015V36.8861C79.2043 37.0936 78.4305 37.1975 77.5333 37.1975C75.0887 37.1975 73.8663 36.2243 73.8663 34.2781ZM75.2317 31.1057H78.8597V28.8676C78.8597 27.6479 78.255 27.0381 77.0457 27.0381C75.8364 27.0381 75.2317 27.6479 75.2317 28.8676V31.1057Z" fill="#403937"/>
<path d="M86.1457 25.9677H86.6334V27.2911H85.9702C85.5021 27.2911 85.0795 27.4144 84.7024 27.6609C84.5853 27.7387 84.3318 27.9139 83.9417 28.1864V37.1001H82.5568V26.0261H83.8831V26.8629C83.9222 26.837 84.0197 26.7656 84.1757 26.6489C84.3448 26.5321 84.4423 26.4672 84.4683 26.4542C84.5073 26.4283 84.5918 26.3764 84.7219 26.2985C84.8649 26.2207 84.9689 26.1753 85.034 26.1623C85.112 26.1363 85.216 26.1039 85.346 26.065C85.5411 26.0001 85.8076 25.9677 86.1457 25.9677Z" fill="#403937"/>
<path d="M92.5669 26.0261H93.9518L90.909 40H89.5826L90.1873 37.1001H89.5046L87.086 26.0261H88.4903L89.6606 31.5339L90.5189 36.127C90.7789 34.596 91.065 33.0649 91.3771 31.5339L92.5669 26.0261Z" fill="#403937"/>
<path d="M32.5341 4.13413C32.0984 3.63364 31.462 3.61927 30.7367 3.60289C30.6545 3.60104 30.5712 3.59915 30.4869 3.59654C30.4227 3.59432 30.3518 3.59517 30.2778 3.59607C29.9837 3.59961 29.6396 3.60376 29.4663 3.41836C29.2653 3.20342 29.2844 2.78803 29.3001 2.44512C29.3051 2.33676 29.3097 2.23557 29.307 2.1503C29.2787 1.35371 29.2198 0.507523 28.8099 0.224644C28.5008 0.012405 27.576 0.0418079 26.7231 0.0689245C26.4467 0.0777149 26.1777 0.0862651 25.9398 0.0862651H7.78638C7.42087 0.0862651 7.03774 0.0639397 6.66129 0.0420038C5.92775 -0.000739485 5.2196 -0.0420037 4.71673 0.0862651C3.98691 0.273329 3.9375 1.25631 3.89097 2.18194L3.88846 2.23174C3.84939 2.99588 3.59694 3.58551 2.76025 3.52612C1.78712 3.45816 0.818806 3.43673 0.378825 4.09739C-0.140803 4.87907 -0.0336356 5.69731 0.158318 7.16291C0.185737 7.37226 0.214887 7.59482 0.244187 7.83237H32.8148C32.8334 7.65874 32.8532 7.48734 32.8728 7.31871C33.0253 6.00012 33.1582 4.85126 32.5341 4.13413Z" fill="#8047F8"/>
<path fill-rule="evenodd" clip-rule="evenodd" d="M2.78069 9.28595C3.28938 14.4504 3.79251 19.6207 4.29566 24.7912L4.29597 24.7943C4.56916 27.6017 4.84235 30.4091 5.11644 33.2156H6.15568C6.2265 33.6549 6.30753 34.1972 6.39296 34.769C6.56638 35.9297 6.75797 37.212 6.91904 38H7.03398C8.09255 37.7095 15.4105 35.3631 15.4138 26.0216C15.4125 25.9949 15.4136 25.9683 15.4173 25.9418H13.6094C13.5218 25.9412 13.437 25.9193 13.3679 25.8795C13.2988 25.8396 13.2493 25.784 13.227 25.7213C13.0508 25.3948 12.9087 25.0588 12.802 24.7161C11.7384 25.1667 10.8938 25.8548 10.3886 26.6823C9.90894 25.8348 9.84616 24.8893 10.2112 24.011C10.5762 23.1327 11.3459 22.3774 12.3856 21.8772C12.399 19.1513 13.7596 16.5237 16.2098 14.4916L16.248 14.4664C16.3193 14.4202 16.4104 14.3945 16.505 14.3939C16.5597 14.3943 16.6137 14.403 16.6636 14.4197C16.7141 14.4365 16.7593 14.461 16.7962 14.4916C19.275 16.5264 20.6284 19.1794 20.5864 21.9213C21.6455 22.4076 22.4308 23.1623 22.7965 24.0454C23.1622 24.9285 23.0835 25.88 22.5749 26.7232C22.0724 25.8945 21.2271 25.2058 20.1615 24.7571C20.0964 25.0892 19.9765 25.414 19.8045 25.7244C19.745 25.8568 19.6261 25.9418 19.5071 25.9418H17.579C17.5821 25.9577 17.5842 25.9736 17.5855 25.9896L17.5862 25.9932V26.001C17.5869 26.0147 17.5869 26.0285 17.5862 26.0423C17.6126 35.652 25.3932 37.8332 26.0491 38H26.2734C26.3307 37.2431 26.5171 36.1987 26.6989 35.1805C26.8241 34.4788 26.9471 33.7896 27.0241 33.2156H28.0754C28.4119 29.6805 28.758 26.1553 29.104 22.6301L29.1042 22.6282L29.1043 22.6272C29.547 18.118 29.9897 13.6087 30.4124 9.07839H2.84801C2.76867 9.09002 2.77408 9.18737 2.78069 9.28595ZM16.505 14.3939L16.503 14.3939H16.5072L16.505 14.3939Z" fill="#8047F8"/>
</svg>
